<svg xmlns="http://www.w3.org/2000/svg" viewBox="0 0 100 56"><path fill="#2dbcef" d="M4,14.52S3.61,5.61.5.18C15.22,17.23,23.36,19.94,25.87,22.07s5.23,6.78,17.83,9.3c0,0,.77-.39,2.32.39l1.55.77s7.36-4.65,9.68.39l-1.55.77C101.8,36,99.48,19,99.48,19c0,7.36-3.49,9.69-3.49,9.69-1.93,3.87-2.71,3.48-2.71,3.48h3.88l-5,2.33c-6.2,4.65-10.46,3.87-10.46,3.87a5.94,5.94,0,0,1-5.42,2.71,10.54,10.54,0,0,1-2.72,1.55V41.05c0,1.17-3.87,1.17-3.87,1.17C56.09,48,51.44,44.15,51.44,44.15c-2.71,1.55,2.33,7,2.33,7C34,64.68,26.26,44.54,26.26,44.54c14.34,3.1,13.37-4.07,13.37-4.07a18.81,18.81,0,0,1-13.56-5.81v1.16s-11.25-7.36-18.22-17c0,0,.39.39-5-4.26H4"/></svg>